<svg width="64" height="64" viewBox="0 0 64 64" fill="none" xmlns="http://www.w3.org/2000/svg">
<path d="M18.0099 61.9853C17.6599 61.9753 17.3049 61.9453 16.9599 61.8853C15.8977 61.696 14.9058 61.225 14.0878 60.5213C13.2698 59.8177 12.6558 58.9073 12.3099 57.8853L2.30991 27.8853C1.25991 24.7353 2.95991 21.3353 6.10991 20.2853C9.25991 19.2353 12.6599 20.9353 13.7099 24.0853L20.2099 43.5853L51.3099 4.28532C53.3649 1.67532 57.1499 1.23032 59.7599 3.28532C62.3699 5.34032 62.8149 9.12532 60.7599 11.7353L22.7599 59.7353C22.1824 60.4367 21.4573 61.002 20.6363 61.3909C19.8152 61.7799 18.9184 61.9828 18.0099 61.9853Z" fill="#65A353"/>
<path opacity="0.35" d="M37.5851 29.4543C38.3301 28.8343 52.5701 11.8443 52.5701 11.8443C52.5701 11.8443 53.7601 10.5793 52.7501 9.46929C51.8001 8.45429 50.5601 9.11929 49.9651 9.77929C49.3701 10.4393 36.5201 25.5893 35.9901 26.3393C35.7356 26.7539 35.5971 27.2292 35.5892 27.7156C35.5813 28.202 35.7042 28.6817 35.9451 29.1043C36.4151 29.8643 37.0701 29.9043 37.5851 29.4543Z" fill="white"/>
<path opacity="0.35" d="M54.2252 8.06563C55.1365 8.06563 55.8752 7.3269 55.8752 6.41563C55.8752 5.50436 55.1365 4.76562 54.2252 4.76562C53.3139 4.76562 52.5752 5.50436 52.5752 6.41563C52.5752 7.3269 53.3139 8.06563 54.2252 8.06563Z" fill="white"/>
<path opacity="0.35" d="M6.3648 32.746C6.6998 32.741 6.62981 30.866 7.50481 29.071C8.11981 27.801 8.9148 27.161 8.9098 26.451C8.9048 25.741 7.94981 22.281 7.23481 22.511C6.23981 22.826 4.9698 24.106 4.6848 26.101C4.2398 29.241 5.7498 32.756 6.3648 32.746Z" fill="white"/>
</svg>
