<svg width="64" height="64" viewBox="0 0 64 64" fill="none" xmlns="http://www.w3.org/2000/svg">
<path d="M31.25 62C34.5637 62 37.25 59.3137 37.25 56C37.25 52.6863 34.5637 50 31.25 50C27.9363 50 25.25 52.6863 25.25 56C25.25 59.3137 27.9363 62 31.25 62Z" fill="#CC3333"/>
<path d="M30.4498 61.1496C33.2941 61.1496 35.5998 58.8439 35.5998 55.9996C35.5998 53.1553 33.2941 50.8496 30.4498 50.8496C27.6055 50.8496 25.2998 53.1553 25.2998 55.9996C25.2998 58.8439 27.6055 61.1496 30.4498 61.1496Z" fill="#F44336"/>
<path opacity="0.2" d="M27.5499 54.1993C28.1499 53.2993 29.4499 52.5492 30.7999 52.3492C31.1499 52.2992 31.4499 52.2993 31.7499 52.3993C31.9499 52.4993 32.1499 52.6993 31.9999 52.8993C31.8999 53.0993 31.6499 53.1493 31.4499 53.1993C30.1999 53.5493 29.0499 54.3993 28.3499 55.3993C28.0999 55.7993 27.6499 56.8492 27.1499 56.5992C26.6499 56.2492 26.7499 55.2993 27.5499 54.1993Z" fill="white"/>
<path d="M23.0501 12.1492C22.0001 13.1492 21.3501 14.3492 21.0501 15.8492C20.9001 16.7992 20.0501 17.4492 19.1001 17.4492H22.5501C23.5001 17.4492 24.3501 16.7992 24.5001 15.8492C24.7501 14.3492 25.4501 13.1492 26.5001 12.1492C27.5501 11.1992 28.8501 10.5992 30.4001 10.3492C29.8501 10.2492 29.2501 10.1992 28.6501 10.1992C26.3501 10.2492 24.5001 10.8992 23.0501 12.1492Z" fill="#CC3333"/>
<path d="M44.7501 6.1C41.7001 3.35 37.5001 2 32.1001 2C31.5001 2 30.9501 2 30.4001 2.05C34.9501 2.3 38.6001 3.65 41.3001 6.1C44.3501 8.85 45.8501 12.7 45.8501 17.6C45.8501 22 43.8001 26.3 39.7501 30.55L34.8501 35.35L34.7001 35.5C33.2501 37.2 32.4001 39.5 32.1001 42.45C32.0001 43.45 31.1501 44.25 30.1001 44.25H33.5501C34.5501 44.25 35.4501 43.45 35.5501 42.45C35.8001 39.5 36.7001 37.2 38.1501 35.5L38.3001 35.35L43.2001 30.55C47.3001 26.3 49.3001 22 49.3001 17.6C49.2501 12.7 47.7501 8.85 44.7501 6.1Z" fill="#CC3333"/>
<path d="M32.1 42.4996C32.35 39.5496 33.25 37.2496 34.7 35.5496L34.85 35.3996L39.75 30.5996C43.85 26.3496 45.85 22.0496 45.85 17.6496C45.85 12.7496 44.35 8.89961 41.3 6.14961C38.6 3.69961 35 2.34961 30.4 2.09961C25.95 2.34961 22.3 3.74961 19.45 6.19961C16.8 8.49961 15.2 11.4996 14.75 15.2496C14.6 16.4496 15.55 17.4496 16.75 17.4496H19.15C20.1 17.4496 20.95 16.7996 21.1 15.8496C21.35 14.3496 22.05 13.1496 23.1 12.1496C24.5 10.8496 26.4 10.1996 28.7 10.1996C29.3 10.1996 29.9 10.2496 30.45 10.3496C31 10.2496 31.55 10.1996 32.15 10.1996C34.55 10.1996 36.4 10.8496 37.65 12.1996C38.9 13.5496 39.55 15.4496 39.55 17.9496C39.55 19.8496 39 21.6496 37.95 23.2496C37.25 24.3496 35.6 26.1496 32.95 28.6996C30.35 31.2496 28.55 33.5996 27.7 35.6996C27 37.3996 26.55 39.5496 26.45 42.1496C26.4 43.2996 27.3 44.2496 28.45 44.2496H30.2C31.1 44.2996 32 43.4996 32.1 42.4996Z" fill="#F44336"/>
<path opacity="0.2" d="M19.7998 7.94923C21.4998 5.84923 24.7498 4.34923 27.9998 4.14923C28.7998 4.09923 29.5998 4.14923 30.2498 4.49923C30.7498 4.74923 31.0998 5.29923 30.7498 5.79923C30.4498 6.19923 29.8498 6.34923 29.3498 6.44923C26.2998 7.04923 23.3498 8.79923 21.3998 11.0992C20.6498 11.9992 19.3998 14.4992 18.2998 13.6992C17.1498 12.7492 17.6998 10.4992 19.7998 7.94923Z" fill="white"/>
</svg>
