<svg width="48" height="48" viewBox="0 0 48 48" fill="none" xmlns="http://www.w3.org/2000/svg">
<path d="M28 19.072V14C28 11.8783 28.8429 9.84344 30.3431 8.34315C31.8434 6.84285 33.8783 6 36 6H39C39.2652 6 39.5196 6.10536 39.7071 6.29289C39.8946 6.48043 40 6.73478 40 7V10C40 12.1217 39.1571 14.1566 37.6569 15.6569C36.1566 17.1571 34.1217 18 32 18C29.8783 18 27.8434 18.8429 26.3431 20.3431C24.8429 21.8434 24 23.8783 24 26M24 26C24 30 26 32 26 36C26 38.1637 25.2982 40.269 24 42M24 26C24 24.1429 23.4829 22.3224 22.5065 20.7427C21.5302 19.1629 20.1332 17.8863 18.4721 17.0557C16.8111 16.2252 14.9516 15.8736 13.1019 16.0404C11.2523 16.2072 9.4857 16.8857 8 18C8 19.8571 8.51715 21.6776 9.49349 23.2573C10.4698 24.8371 11.8668 26.1137 13.5279 26.9443C15.1889 27.7748 17.0484 28.1264 18.8981 27.9596C20.7477 27.7928 22.5143 27.1143 24 26ZM10 42H38" stroke="black" stroke-width="4" stroke-linecap="round" stroke-linejoin="round"/>
</svg>
