<svg width="64" height="64" viewBox="0 0 64 64" fill="none" xmlns="http://www.w3.org/2000/svg">
<g clip-path="url(#clip0_72_1051)">
<path d="M40.16 14.0884L55.2453 29.1737C55.9944 29.9237 56.4151 30.9404 56.4151 32.0004C56.4151 33.0604 55.9944 34.077 55.2453 34.827L40.1627 49.915C39.4123 50.6654 38.3945 51.087 37.3333 51.087C36.2721 51.087 35.2544 50.6654 34.504 49.915C33.7536 49.1646 33.3321 48.1469 33.3321 47.0857C33.3321 46.0245 33.7536 45.0067 34.504 44.2564L42.76 36.0004H12C10.9391 36.0004 9.92172 35.5789 9.17157 34.8288C8.42143 34.0786 8 33.0612 8 32.0004C8 30.9395 8.42143 29.9221 9.17157 29.1719C9.92172 28.4218 10.9391 28.0004 12 28.0004H42.76L34.5067 19.7444C33.7566 18.994 33.3354 17.9764 33.3357 16.9154C33.3359 15.8545 33.7576 14.8371 34.508 14.087C35.2584 13.337 36.276 12.9158 37.3369 12.916C38.3979 12.9163 39.4153 13.338 40.1653 14.0884H40.16Z" fill="#1F56BE"/>
</g>
<defs>
<clipPath id="clip0_72_1051">
<rect width="64" height="64" fill="white"/>
</clipPath>
</defs>
</svg>
