<svg width="48" height="48" viewBox="0 0 48 48" fill="none" xmlns="http://www.w3.org/2000/svg">
<path d="M29.4 12.5996C29.0335 12.9734 28.8282 13.4761 28.8282 13.9996C28.8282 14.5231 29.0335 15.0257 29.4 15.3996L32.6 18.5996C32.9738 18.966 33.4765 19.1713 34 19.1713C34.5235 19.1713 35.0261 18.966 35.4 18.5996L41.612 12.3896C42.252 11.7456 43.338 11.9496 43.578 12.8256C44.1822 15.0233 44.1481 17.3477 43.4795 19.5268C42.8109 21.7058 41.5356 23.6494 39.8027 25.13C38.0699 26.6107 35.9511 27.5672 33.6945 27.8877C31.4378 28.2082 29.1365 27.8793 27.06 26.9396L11.24 42.7596C10.4443 43.555 9.36528 44.0017 8.24025 44.0015C7.11522 44.0013 6.03634 43.5542 5.24096 42.7586C4.44557 41.9629 3.99884 40.8839 3.99902 39.7589C3.99921 38.6338 4.44631 37.555 5.24196 36.7596L21.062 20.9396C20.1222 18.863 19.7934 16.5617 20.1138 14.3051C20.4343 12.0484 21.3908 9.92967 22.8715 8.1968C24.3522 6.46393 26.2957 5.18859 28.4748 4.52002C30.6538 3.85145 32.9782 3.8173 35.176 4.42157C36.052 4.66157 36.256 5.74557 35.614 6.38957L29.4 12.5996Z" stroke="black" stroke-width="4" stroke-linecap="round" stroke-linejoin="round"/>
</svg>
