<svg width="249" height="55" viewBox="0 0 249 55" fill="none" xmlns="http://www.w3.org/2000/svg">
<path d="M11.0257 33.6886C9.84037 33.337 9.03976 32.9958 8.62385 32.6649C8.20795 32.3547 8 31.9204 8 31.362C8 30.7416 8.14557 29.8731 8.4367 28.7563C8.72783 27.6189 9.10214 26.3574 9.55963 24.9718C10.0379 23.5863 10.5786 22.1386 11.1817 20.629C11.7847 19.1193 12.3982 17.6717 13.022 16.2861C13.6459 14.9005 14.2489 13.639 14.8312 12.5016C15.4343 11.3435 15.9645 10.4439 16.422 9.80286L16.2037 8.5C16.4948 8.5 16.9003 8.57238 17.4202 8.71714C17.9401 8.8619 18.4599 9.03769 18.9798 9.24449C19.5205 9.45129 19.9884 9.66844 20.3835 9.89592C20.7994 10.1027 21.0281 10.2785 21.0697 10.4233C20.9657 10.9196 20.8826 11.6744 20.8202 12.6878C20.7578 13.6804 20.7266 14.7454 20.7266 15.8829C20.7266 18.137 20.8098 20.3498 20.9761 22.5212C21.1633 24.672 21.5792 26.8641 22.2239 29.0975C22.5566 27.4431 22.9101 25.799 23.2844 24.1653C23.6795 22.5109 24.085 20.9392 24.5009 19.4502C24.9168 17.9405 25.3327 16.5446 25.7486 15.2624C26.1645 13.9803 26.5596 12.8635 26.9339 11.9122C27.3291 10.9403 27.693 10.1854 28.0257 9.64775C28.3584 9.08939 28.6599 8.78952 28.9303 8.74816C29.159 8.78952 29.4086 8.88259 29.6789 9.02735C29.9492 9.15143 30.2092 9.30653 30.4587 9.49265C30.7083 9.67878 30.937 9.88558 31.145 10.1131C31.3529 10.3405 31.5193 10.568 31.644 10.7955C30.9786 11.0644 30.3132 11.6951 29.6477 12.6878C29.0031 13.6804 28.3792 14.8902 27.7761 16.3171C27.1939 17.7234 26.6428 19.2537 26.1229 20.9082C25.6239 22.5626 25.1768 24.1963 24.7817 25.8094C24.4073 27.4018 24.1058 28.8804 23.8771 30.2453C23.6691 31.6102 23.5547 32.7063 23.5339 33.5335C23.5339 33.5748 23.5443 33.6058 23.5651 33.6265C23.5028 33.6472 23.43 33.6576 23.3468 33.6576C23.2844 33.6576 23.222 33.6576 23.1596 33.6576C22.2031 33.6576 21.3505 33.5335 20.6018 33.2853C19.874 33.0578 19.3957 32.7269 19.167 32.2927C18.7303 30.5555 18.3664 28.8804 18.0752 27.2673C17.7841 25.6543 17.5346 24.0412 17.3266 22.4282C17.1394 20.8151 16.9835 19.1917 16.8587 17.558C16.7547 15.9035 16.6716 14.1767 16.6092 12.3776C16.2141 12.998 15.7982 13.8148 15.3615 14.8282C14.9248 15.8208 14.4985 16.9169 14.0826 18.1163C13.6667 19.3158 13.2612 20.5773 12.8661 21.9008C12.4917 23.2244 12.159 24.5169 11.8679 25.7784C11.5768 27.0399 11.348 28.2393 11.1817 29.3767C11.0153 30.4935 10.9321 31.4654 10.9321 32.2927C10.9321 32.7269 10.9321 33.0371 10.9321 33.2233C10.9529 33.4094 10.9841 33.5645 11.0257 33.6886Z" fill="black"/>
<path d="M41.8128 23.2347C41.8752 23.5863 41.9168 23.8344 41.9376 23.9792C41.9792 24.1033 42 24.279 42 24.5065C42 25.189 41.844 25.8301 41.5321 26.4298C41.241 27.0088 40.8355 27.4224 40.3156 27.6706C39.8997 27.1122 39.3902 26.6366 38.7872 26.2437C38.1841 25.8301 37.5187 25.4992 36.7908 25.251C36.0838 24.9822 35.3456 24.7857 34.5761 24.6616C33.8067 24.5376 33.0581 24.4755 32.3303 24.4755C31.6024 24.4755 30.9162 24.5376 30.2716 24.6616C29.6477 24.765 29.0862 24.9201 28.5872 25.1269C28.1089 25.3131 27.7242 25.5509 27.433 25.8404C27.1627 26.1299 27.0275 26.4608 27.0275 26.8331C27.0899 27.288 27.3706 27.7533 27.8697 28.229C28.3688 28.6839 28.9823 29.1389 29.7101 29.5939C30.4379 30.0282 31.2385 30.4625 32.1119 30.8967C33.0061 31.331 33.8795 31.7446 34.7321 32.1376C35.7927 32.6339 36.7076 33.0992 37.4771 33.5335C38.2465 33.9471 38.8807 34.4124 39.3798 34.9294C39.8789 35.4257 40.2532 35.9944 40.5028 36.6355C40.7523 37.2766 40.8771 38.0521 40.8771 38.962C40.8771 40.0167 40.7003 41.0094 40.3468 41.94C39.9933 42.8499 39.4734 43.6461 38.7872 44.3286C38.1217 45.011 37.3107 45.5384 36.3541 45.9106C35.3976 46.3035 34.3266 46.5 33.1413 46.5C31.9768 46.5 30.7187 46.3242 29.367 45.9727C28.0153 45.6211 26.7468 45.1351 25.5615 44.5147C24.3969 43.915 23.4196 43.2222 22.6294 42.4363C21.8599 41.6298 21.4752 40.7819 21.4752 39.8927C21.4752 39.479 21.5896 38.9517 21.8183 38.3106C22.0679 37.6695 22.5046 36.9974 23.1284 36.2943C23.1908 36.9147 23.5235 37.6488 24.1266 38.4967C24.7505 39.3446 25.6758 40.1305 26.9027 40.8543C28.0465 41.5161 29.2214 42.002 30.4275 42.3122C31.6544 42.6018 32.7982 42.7465 33.8587 42.7465C35.0232 42.7465 35.9694 42.6018 36.6972 42.3122C37.4251 42.0227 37.9969 41.6815 38.4128 41.2886C38.8287 40.875 39.1199 40.4614 39.2862 40.0478C39.4526 39.6342 39.5462 39.3033 39.567 39.0551C39.5462 38.6415 39.3486 38.2486 38.9743 37.8763C38.6208 37.4834 38.1321 37.1112 37.5083 36.7596C36.9052 36.3873 36.1982 36.0151 35.3872 35.6429C34.5761 35.2706 33.7339 34.8984 32.8605 34.5261C31.5505 33.9471 30.4171 33.4094 29.4605 32.9131C28.5248 32.3961 27.745 31.879 27.1211 31.362C26.518 30.8244 26.0709 30.266 25.7798 29.6869C25.5095 29.1079 25.3743 28.4461 25.3743 27.7016C25.3743 26.5435 25.7278 25.4475 26.4349 24.4135C27.1419 23.3795 28.1609 22.5936 29.4917 22.0559C30.1572 21.7664 30.8642 21.5596 31.6128 21.4355C32.3823 21.3114 33.1309 21.2494 33.8587 21.2494C35.2312 21.2494 36.5725 21.4355 37.8826 21.8078C39.1927 22.18 40.5028 22.6556 41.8128 23.2347Z" fill="black"/>
<path d="M52.3 27L52.8 12.72H53.04L63.1 24.88H63.22L62.78 13H64.14L63.64 27.28H63.4L53.34 15.12H53.22L53.66 27H52.3ZM66.9653 27L72.3453 13H73.5853L78.9653 27H77.5053L75.0253 20.44H70.4853L68.4253 27H66.9653ZM72.4853 14.04L70.6253 19.96H74.8453L72.6053 14.04H72.4853ZM84.218 27V13.4C84.018 13.4 83.6046 13.44 82.978 13.52L79.058 14.02V13H90.738V14.02L86.818 13.52C86.1913 13.44 85.778 13.4 85.578 13.4V27H84.218ZM90.7153 27L96.0953 13H97.3353L102.715 27H101.255L98.7753 20.44H94.2353L92.1753 27H90.7153ZM96.2353 14.04L94.3753 19.96H98.5953L96.3553 14.04H96.2353ZM105.959 13H107.319V26.6C107.573 26.6 107.973 26.56 108.519 26.48L111.839 25.98V27H105.959V13ZM115.178 27V13H116.538V27H115.178ZM119.661 27L125.041 13H126.281L131.661 27H130.201L127.721 20.44H123.181L121.121 27H119.661ZM125.181 14.04L123.321 19.96H127.541L125.301 14.04H125.181ZM139.075 26.56L139.195 25.36H139.315C139.835 25.8133 140.422 26.1667 141.075 26.42C141.729 26.6733 142.375 26.8 143.015 26.8C143.922 26.8 144.655 26.5533 145.215 26.06C145.775 25.5533 146.055 24.88 146.055 24.04C146.055 23.5733 145.949 23.14 145.735 22.74C145.535 22.34 145.195 21.9333 144.715 21.52C144.249 21.1067 143.602 20.66 142.775 20.18C142.202 19.8467 141.655 19.5 141.135 19.14C140.615 18.7667 140.189 18.34 139.855 17.86C139.522 17.3667 139.355 16.78 139.355 16.1C139.355 15.0867 139.722 14.2733 140.455 13.66C141.189 13.0333 142.155 12.72 143.355 12.72C143.889 12.72 144.462 12.78 145.075 12.9C145.689 13.0067 146.162 13.1467 146.495 13.32L146.395 14.44H146.275C145.515 13.6133 144.542 13.2 143.355 13.2C142.502 13.2 141.815 13.42 141.295 13.86C140.775 14.2867 140.515 14.8667 140.515 15.6C140.515 16.1467 140.655 16.62 140.935 17.02C141.229 17.4067 141.602 17.76 142.055 18.08C142.509 18.3867 142.995 18.6867 143.515 18.98C144.115 19.3267 144.695 19.6933 145.255 20.08C145.829 20.4667 146.295 20.9333 146.655 21.48C147.029 22.0133 147.215 22.6867 147.215 23.5C147.215 24.2467 147.042 24.9067 146.695 25.48C146.349 26.04 145.855 26.48 145.215 26.8C144.589 27.12 143.855 27.28 143.015 27.28C142.482 27.28 141.855 27.2133 141.135 27.08C140.415 26.9467 139.729 26.7733 139.075 26.56ZM151.155 27V13H152.515V19.48H160.915V13H162.275V27H160.915V19.96H152.515V27H151.155ZM167.483 27V13H173.583V13.98L170.083 13.52C169.469 13.44 169.056 13.4 168.843 13.4V19.5C169.016 19.5 169.429 19.48 170.083 19.44L173.363 19.24V20.16L170.083 19.96C169.429 19.92 169.016 19.9 168.843 19.9V26.6C169.083 26.6 169.503 26.56 170.103 26.48L173.643 26.02V27H167.483ZM175.874 13H177.374L182.834 25.44H182.954L187.534 13H189.034L182.674 27.28H182.234L175.874 13ZM203.115 25.28L202.995 26.5C202.622 26.66 202.169 26.8 201.635 26.92C201.102 27.04 200.562 27.1267 200.015 27.18C199.469 27.2467 198.982 27.28 198.555 27.28C197.475 27.28 196.475 27.1 195.555 26.74C194.635 26.3667 193.829 25.8533 193.135 25.2C192.455 24.5467 191.922 23.78 191.535 22.9C191.149 22.0067 190.955 21.04 190.955 20C190.955 18.96 191.149 18 191.535 17.12C191.922 16.2267 192.455 15.4533 193.135 14.8C193.829 14.1467 194.635 13.64 195.555 13.28C196.475 12.9067 197.475 12.72 198.555 12.72C198.995 12.72 199.489 12.7533 200.035 12.82C200.582 12.8867 201.115 12.98 201.635 13.1C202.155 13.2067 202.595 13.3333 202.955 13.48L202.855 14.6H202.735C202.242 14.1467 201.622 13.8 200.875 13.56C200.129 13.32 199.355 13.2 198.555 13.2C197.355 13.2 196.295 13.4867 195.375 14.06C194.469 14.62 193.755 15.4133 193.235 16.44C192.729 17.4533 192.475 18.64 192.475 20C192.475 21.3733 192.729 22.5667 193.235 23.58C193.755 24.5933 194.469 25.3867 195.375 25.96C196.282 26.52 197.342 26.8 198.555 26.8C199.462 26.8 200.302 26.6533 201.075 26.36C201.862 26.0667 202.502 25.7067 202.995 25.28H203.115ZM207.112 27V13H208.472V19.48H216.872V13H218.232V27H216.872V19.96H208.472V27H207.112ZM223.44 27V13H224.8V27H223.44ZM238.642 27L232.082 19.82L238.162 13H239.882L233.302 19.26L240.442 27H238.642ZM230.002 27V13H231.362V27H230.002Z" fill="black"/>
<path d="M51.2 38H51.88V42.22C51.88 43.0267 52.0767 43.6567 52.47 44.11C52.87 44.5567 53.43 44.78 54.15 44.78C54.6033 44.78 54.9967 44.6933 55.33 44.52C55.67 44.34 55.93 44.0933 56.11 43.78C56.2967 43.4667 56.3833 43.1067 56.37 42.7L56.2 38H56.88L56.71 42.7C56.6833 43.5 56.4433 44.1067 55.99 44.52C55.5433 44.9333 54.9033 45.14 54.07 45.14C53.17 45.14 52.4667 44.88 51.96 44.36C51.4533 43.8333 51.2 43.1133 51.2 42.2V38ZM59.2785 45V38H59.9585V45H59.2785ZM61.7598 45L64.0398 38H64.3798L62.0998 45H61.7598ZM66.0828 38H66.7628V42.22C66.7628 43.0267 66.9595 43.6567 67.3528 44.11C67.7528 44.5567 68.3128 44.78 69.0328 44.78C69.4861 44.78 69.8795 44.6933 70.2128 44.52C70.5528 44.34 70.8128 44.0933 70.9928 43.78C71.1795 43.4667 71.2661 43.1067 71.2528 42.7L71.0828 38H71.7628L71.5928 42.7C71.5661 43.5 71.3261 44.1067 70.8728 44.52C70.4261 44.9333 69.7861 45.14 68.9528 45.14C68.0528 45.14 67.3495 44.88 66.8428 44.36C66.3361 43.8333 66.0828 43.1133 66.0828 42.2V38ZM73.1813 45L75.7613 41.51L73.3813 38H74.1813L76.1513 40.91H76.2113L77.9213 38H78.7213L76.3213 41.17L78.9213 45H78.1213L75.9313 41.77H75.8713L73.9813 45H73.1813ZM83.175 45V38H85.375C86.1483 38 86.8217 38.1467 87.395 38.44C87.9683 38.7333 88.415 39.1433 88.735 39.67C89.055 40.19 89.215 40.8 89.215 41.5C89.215 42.2 89.055 42.8133 88.735 43.34C88.415 43.86 87.9683 44.2667 87.395 44.56C86.8217 44.8533 86.1483 45 85.375 45H83.175ZM85.375 38.24H83.855V44.76H85.375C86.3417 44.76 87.095 44.4733 87.635 43.9C88.1817 43.3267 88.455 42.5267 88.455 41.5C88.455 40.4733 88.1817 39.6733 87.635 39.1C87.095 38.5267 86.3417 38.24 85.375 38.24ZM91.3195 45V38H94.3695V38.49L92.6195 38.26C92.3129 38.22 92.1062 38.2 91.9995 38.2V41.25C92.0862 41.25 92.2929 41.24 92.6195 41.22L94.2595 41.12V41.58L92.6195 41.48C92.2929 41.46 92.0862 41.45 91.9995 41.45V44.8C92.1195 44.8 92.3295 44.78 92.6295 44.74L94.3995 44.51V45H91.3195ZM95.8853 44.78L95.9453 44.18H96.0053C96.2653 44.4067 96.5586 44.5833 96.8853 44.71C97.212 44.8367 97.5353 44.9 97.8553 44.9C98.3086 44.9 98.6753 44.7767 98.9553 44.53C99.2353 44.2767 99.3753 43.94 99.3753 43.52C99.3753 43.2867 99.322 43.07 99.2153 42.87C99.1153 42.67 98.9453 42.4667 98.7053 42.26C98.472 42.0533 98.1486 41.83 97.7353 41.59C97.4486 41.4233 97.1753 41.25 96.9153 41.07C96.6553 40.8833 96.442 40.67 96.2753 40.43C96.1086 40.1833 96.0253 39.89 96.0253 39.55C96.0253 39.0433 96.2086 38.6367 96.5753 38.33C96.942 38.0167 97.4253 37.86 98.0253 37.86C98.292 37.86 98.5786 37.89 98.8853 37.95C99.192 38.0033 99.4286 38.0733 99.5953 38.16L99.5453 38.72H99.4853C99.1053 38.3067 98.6186 38.1 98.0253 38.1C97.5986 38.1 97.2553 38.21 96.9953 38.43C96.7353 38.6433 96.6053 38.9333 96.6053 39.3C96.6053 39.5733 96.6753 39.81 96.8153 40.01C96.962 40.2033 97.1486 40.38 97.3753 40.54C97.602 40.6933 97.8453 40.8433 98.1053 40.99C98.4053 41.1633 98.6953 41.3467 98.9753 41.54C99.262 41.7333 99.4953 41.9667 99.6753 42.24C99.862 42.5067 99.9553 42.8433 99.9553 43.25C99.9553 43.6233 99.8686 43.9533 99.6953 44.24C99.522 44.52 99.2753 44.74 98.9553 44.9C98.642 45.06 98.2753 45.14 97.8553 45.14C97.5886 45.14 97.2753 45.1067 96.9153 45.04C96.5553 44.9733 96.212 44.8867 95.8853 44.78ZM101.925 45V38H102.605V45H101.925ZM108.696 41.68V41.44H111.226V44.16C110.92 44.4667 110.543 44.7067 110.096 44.88C109.656 45.0533 109.163 45.14 108.616 45.14C108.056 45.14 107.54 45.05 107.066 44.87C106.593 44.6833 106.18 44.4267 105.826 44.1C105.473 43.7667 105.196 43.38 104.996 42.94C104.803 42.5 104.706 42.02 104.706 41.5C104.706 40.98 104.803 40.5 104.996 40.06C105.196 39.62 105.473 39.2367 105.826 38.91C106.18 38.5767 106.593 38.32 107.066 38.14C107.54 37.9533 108.056 37.86 108.616 37.86C108.856 37.86 109.116 37.8767 109.396 37.91C109.683 37.9433 109.956 37.99 110.216 38.05C110.476 38.1033 110.696 38.17 110.876 38.25L110.826 38.81H110.766C110.5 38.5767 110.18 38.4 109.806 38.28C109.433 38.16 109.036 38.1 108.616 38.1C107.99 38.1 107.44 38.2433 106.966 38.53C106.493 38.81 106.123 39.2067 105.856 39.72C105.596 40.2267 105.466 40.82 105.466 41.5C105.466 42.18 105.596 42.7767 105.856 43.29C106.123 43.7967 106.493 44.1933 106.966 44.48C107.44 44.76 107.99 44.9 108.616 44.9C109.003 44.9 109.36 44.8467 109.686 44.74C110.02 44.6333 110.306 44.48 110.546 44.28V41.68H108.696ZM113.377 45L113.627 37.86H113.747L118.777 43.94H118.837L118.617 38H119.297L119.047 45.14H118.927L113.897 39.06H113.837L114.057 45H113.377ZM121.749 45V38H124.799V38.49L123.049 38.26C122.743 38.22 122.536 38.2 122.429 38.2V41.25C122.516 41.25 122.723 41.24 123.049 41.22L124.689 41.12V41.58L123.049 41.48C122.723 41.46 122.516 41.45 122.429 41.45V44.8C122.549 44.8 122.759 44.78 123.059 44.74L124.829 44.51V45H121.749ZM126.925 38H128.265C128.972 38 129.518 38.15 129.905 38.45C130.298 38.7433 130.495 39.1567 130.495 39.69C130.495 40.1033 130.372 40.4467 130.125 40.72C129.885 40.9933 129.535 41.1767 129.075 41.27V41.33C129.515 41.4167 129.875 41.6233 130.155 41.95C130.435 42.2767 130.645 42.68 130.785 43.16C130.912 43.6 131.035 43.9433 131.155 44.19C131.282 44.43 131.418 44.6033 131.565 44.71C131.718 44.8167 131.898 44.8933 132.105 44.94V45H131.695C131.402 45 131.158 44.9467 130.965 44.84C130.778 44.7333 130.618 44.5533 130.485 44.3C130.352 44.0467 130.225 43.6967 130.105 43.25C129.912 42.5633 129.655 42.0767 129.335 41.79C129.015 41.5033 128.625 41.36 128.165 41.36H128.105V41.18H128.165C129.238 41.18 129.775 40.6867 129.775 39.7C129.775 38.7267 129.272 38.24 128.265 38.24H127.605V45H126.925V38Z" fill="black"/>
</svg>
